PathFileType	4	(X/Y/Z)	C:\Users\WrightLab\Desktop\Jo\P1_boxCal6.trc
DataRate	CameraRate	NumFrames	NumMarkers	Units	OrigDataRate	OrigDataStartFrame	OrigNumFrames
100.00	100.00	       11	19	mm	100.00	185	       739
Frame#	Time	Headset_Front			Headset_Back			Headset_Left			Headset_Right			Left_Shoulder			Right_Shoulder			Sternum			C7			Left Elbow			Right Elbow			Left Wrist			Right Wrist			Left ASIS			Right ASIS			S2			Left Knee			Right Knee			Left Ankle			Right Ankle			
		X1	Y1	Z1	X2	Y2	Z2	X3	Y3	Z3	X4	Y4	Z4	X5	Y5	Z5	X6	Y6	Z6	X7	Y7	Z7	X8	Y8	Z8	X9	Y9	Z9	X10	Y10	Z10	X11	Y11	Z11	X12	Y12	Z12	X13	Y13	Z13	X14	Y14	Z14	X15	Y15	Z15	X16	Y16	Z16	X17	Y17	Z17	X18	Y18	Z18	X19	Y19	Z19	

185	1.840	-412.46271	1399.71558	-536.34406	-373.69357	1459.90173	-837.91791	-280.62250	1419.78906	-697.28479	-504.00195	1411.76050	-653.64777	-199.79477	1245.08716	-740.92413	-573.64301	1226.86340	-740.86023	-403.63342	1125.39587	-611.11108	-374.15207	1237.58826	-856.89331	-109.43793	924.43091	-741.01624	-645.42511	960.60376	-828.95532	-63.34818	750.49866	-623.37561	-717.66211	728.48096	-796.74634	-283.16769	844.55988	-601.39374	-483.19818	842.78943	-609.07861	-364.34488	851.60144	-919.80157	-186.86151	414.81555	-812.73749	-538.41400	442.28894	-605.23627	-190.98837	122.94051	-1041.31165	-539.39386	78.60594	-531.21094	
186	1.850	-416.11011	1400.82458	-526.41327	-377.24677	1459.11609	-824.91077	-284.50211	1420.17175	-685.96356	-507.60400	1413.28076	-644.55188	-203.29027	1245.90210	-731.34149	-577.70746	1227.25989	-730.90631	-406.80920	1126.42249	-600.22107	-378.02567	1237.69946	-846.44867	-112.99315	925.29883	-734.83624	-649.24396	961.32959	-819.12671	-64.98585	750.88916	-618.49194	-722.34070	728.89642	-788.24268	-286.08728	846.14685	-587.57922	-485.25671	843.31824	-595.04913	-368.45374	851.81348	-907.75787	-187.79810	414.86755	-796.60321	-541.01599	442.02634	-594.49768	-190.00571	129.43184	-1032.18164	-542.38330	76.81197	-525.40668	
187	1.860	-418.85773	1401.32458	-515.50720	-380.65372	1459.66785	-815.61694	-287.39850	1420.89197	-676.54114	-511.32034	1414.13635	-633.94928	-206.63783	1247.45166	-722.53601	-581.19696	1227.24915	-720.59058	-407.76575	1126.69116	-588.17859	-381.84225	1237.54041	-836.01703	-117.11512	925.81598	-727.65375	-652.45276	961.57861	-809.43628	-66.71259	751.25305	-613.28546	-725.64087	729.37970	-779.53943	-289.46411	847.80316	-577.27020	-488.48041	844.85065	-581.62665	-372.39819	851.07477	-895.01324	-188.42039	414.39645	-779.12628	-544.26031	442.54001	-583.69464	-190.11024	135.26535	-1021.79163	-544.83173	74.83672	-520.42670	
188	1.870	-422.88358	1403.29761	-506.94244	-383.97604	1460.27466	-805.79871	-290.41278	1421.68176	-666.87646	-514.25507	1414.81677	-623.85071	-209.88132	1248.97229	-713.06091	-584.83313	1227.75171	-709.66150	-412.65546	1130.11536	-577.54352	-385.65280	1237.50049	-825.56891	-121.77302	927.19550	-720.78619	-655.63177	962.02222	-798.76532	-68.95708	751.87024	-608.18518	-729.85541	729.90747	-770.22540	-293.00684	850.03320	-563.63287	-492.34448	846.84619	-569.61066	-376.46405	851.49945	-883.28406	-188.21262	414.27026	-760.84509	-546.66022	440.53094	-579.66156	-191.94637	141.30270	-1009.47528	-545.91492	72.91647	-515.68970	
189	1.880	-425.21454	1404.87524	-496.30649	-386.99313	1462.20752	-799.18927	-293.11270	1422.77209	-657.48499	-517.69788	1416.53503	-615.19232	-213.19965	1249.85425	-703.03107	-587.77472	1228.15125	-698.68286	-416.02554	1131.35632	-568.10803	-389.13016	1238.20117	-815.31500	-125.65691	928.17352	-713.67651	-657.85901	962.16779	-788.00940	-70.72021	752.57074	-604.73364	-733.10083	731.18311	-760.82275	-297.28928	851.68420	-551.92255	-495.84201	848.34198	-557.15479	-380.10223	851.03851	-870.65002	-188.93929	413.34741	-740.48877	-551.24890	444.77127	-563.55371	-193.08640	148.27986	-997.20911	-546.46344	70.90493	-512.39258	
190	1.890	-428.26965	1405.81348	-485.59064	-390.38480	1460.99902	-786.64764	-296.95908	1423.77649	-647.16980	-520.39270	1417.08972	-604.42297	-216.12703	1251.31775	-692.82397	-591.13263	1229.49707	-687.95374	-417.74316	1132.60583	-555.76746	-392.59857	1239.06287	-805.19336	-130.08722	929.82941	-707.37024	-660.75464	963.44415	-777.61816	-72.81345	753.08673	-599.92621	-735.52032	731.33002	-749.56927	-301.34085	854.05151	-541.46643	-500.02841	850.03857	-544.90930	-383.33997	851.67328	-858.93579	-189.26550	412.55811	-720.43359	-554.31403	445.69577	-554.18213	-194.26865	155.22137	-981.78204	-546.33441	70.59435	-509.92114	
191	1.900	-430.93143	1406.93127	-475.52188	-393.44888	1461.54761	-776.59967	-299.90845	1425.83923	-637.49689	-523.35620	1417.78845	-594.45892	-218.37747	1253.37976	-684.41010	-593.71722	1230.35876	-676.89636	-421.86984	1135.04236	-547.48877	-395.68906	1240.17847	-794.52039	-133.63574	931.51581	-701.32446	-663.59875	964.63690	-766.89069	-74.64251	754.29224	-596.45569	-738.89142	732.81482	-739.06995	-305.63867	856.18494	-528.33899	-503.23059	851.56616	-534.14789	-386.27600	852.01929	-847.34821	-189.87863	411.27130	-697.96918	-555.51581	446.03311	-549.09363	-196.02997	161.79893	-966.22980	-546.31915	69.60963	-507.44339	
192	1.910	-434.29666	1409.64575	-465.91101	-396.31326	1462.66394	-766.88934	-302.92575	1427.22754	-627.13977	-526.30792	1419.38330	-585.42676	-221.23900	1255.50195	-676.26532	-596.34717	1231.24634	-665.39911	-423.59457	1137.22119	-536.70050	-398.93759	1241.27209	-784.92664	-138.00250	933.20758	-694.08252	-666.67102	965.71582	-755.14630	-76.49922	755.23895	-591.81738	-743.43439	734.75800	-728.84137	-309.36514	857.82593	-517.21417	-507.19418	853.68634	-523.83069	-388.59045	852.56238	-837.16553	-189.88092	411.00156	-677.01459	-558.72015	445.62384	-543.69031	-197.53250	170.10620	-947.36487	-546.21259	69.14623	-507.19977	
193	1.920	-437.21042	1411.51001	-456.19455	-399.18256	1463.89063	-757.11871	-305.59824	1429.74951	-617.74902	-528.87488	1420.29663	-574.94507	-223.72699	1257.52319	-666.12616	-599.14838	1232.63525	-654.11536	-425.85254	1138.26672	-527.00909	-401.84769	1242.66858	-774.45795	-141.98962	934.84619	-686.50623	-669.74475	967.41479	-744.05048	-78.42709	756.53058	-587.79114	-746.87134	736.28070	-716.62616	-313.13031	859.71753	-506.32449	-510.89658	855.79022	-513.47589	-390.68845	852.88495	-825.95105	-190.94086	410.64914	-655.32233	-562.74890	446.48309	-535.59088	-200.52293	177.91704	-928.90747	-544.97382	70.08016	-505.49194	
194	1.930	-439.16861	1413.36426	-445.58771	-401.96710	1465.36816	-747.28674	-308.12723	1431.44983	-607.64874	-531.92267	1421.70215	-565.87091	-225.57426	1259.63123	-657.21008	-601.33698	1233.75623	-642.45685	-427.28003	1140.64380	-516.15045	-404.62289	1244.39160	-764.81946	-144.68272	937.20679	-680.90656	-673.78632	969.41357	-732.25671	-79.57874	758.10199	-583.97351	-750.04895	737.89630	-704.29987	-316.50455	860.92651	-494.58337	-515.08472	857.22034	-502.31107	-393.10345	853.77966	-815.38928	-191.18452	411.88077	-635.22119	-567.65179	446.87805	-528.42139	-203.04004	187.03275	-910.61182	-545.13422	70.03271	-505.23703	
195	1.940	-442.21732	1415.33459	-436.29953	-404.65451	1466.80823	-737.62939	-310.95233	1433.45520	-598.08313	-534.56531	1423.20251	-555.72772	-228.17165	1261.61816	-648.38153	-602.97968	1235.65601	-631.64410	-427.05252	1140.47925	-506.07837	-407.20288	1246.25208	-754.66125	-147.45006	940.01990	-674.50238	-676.56372	970.84747	-719.78528	-80.75983	759.86017	-579.25293	-753.13696	739.37238	-692.29944	-320.40833	861.70612	-483.98035	-518.08423	859.37280	-492.38754	-394.57455	854.28918	-804.64343	-191.93050	412.92270	-614.16028	-570.92828	446.60333	-522.50104	-206.96025	192.35124	-891.04706	-546.13483	69.79345	-505.89078	
